<svg width="221" height="164" viewBox="0 0 221 164" fill="none" xmlns="http://www.w3.org/2000/svg">
<path d="M1.49012e-07 146L38 -3.8147e-06H62.2L100 146H81.8L72.2 107.2H28L18.4 146H1.49012e-07ZM31.6 92H68.4L57.2 47C55.0667 38.4667 53.4 31.3333 52.2 25.6C51 19.8667 50.2667 16.1333 50 14.4C49.7333 16.1333 49 19.8667 47.8 25.6C46.6 31.3333 44.9333 38.4 42.8 46.8L31.6 92ZM147.422 146C144.222 146 141.422 145.367 139.022 144.1C136.622 142.833 134.755 141.033 133.422 138.7C132.089 136.367 131.422 133.633 131.422 130.5V81.2H112.922V73H140.422V130.5C140.422 132.767 141.055 134.567 142.322 135.9C143.589 137.167 145.289 137.8 147.422 137.8H164.922V146H147.422ZM185.983 164V155.8H203.483C206.283 155.8 208.316 155.167 209.583 153.9C210.916 152.633 211.583 150.667 211.583 148V141L211.783 131H209.983L211.683 129.5C211.683 133.5 210.349 136.667 207.683 139C205.016 141.333 201.449 142.5 196.983 142.5C191.316 142.5 186.849 140.667 183.583 137C180.316 133.267 178.683 128.267 178.683 122V110.4C178.683 104.133 180.316 99.1667 183.583 95.5C186.849 91.8333 191.316 90 196.983 90C201.449 90 205.016 91.1667 207.683 93.5C210.349 95.8333 211.683 99 211.683 103L209.983 101.5H211.683V91H220.583V148C220.583 152.933 219.049 156.833 215.983 159.7C212.983 162.567 208.783 164 203.383 164H185.983ZM199.683 134.7C203.416 134.7 206.349 133.533 208.483 131.2C210.616 128.867 211.683 125.633 211.683 121.5V111C211.683 106.867 210.616 103.633 208.483 101.3C206.349 98.9667 203.416 97.8 199.683 97.8C195.883 97.8 192.916 98.9333 190.783 101.2C188.716 103.467 187.683 106.733 187.683 111V121.5C187.683 125.767 188.716 129.033 190.783 131.3C192.916 133.567 195.883 134.7 199.683 134.7Z" fill="#4381C3"/>
</svg>
