<svg width="300" height="300" viewBox="0 0 300 300" fill="none" xmlns="http://www.w3.org/2000/svg">
<rect x="55.6812" width="250" height="250" rx="30" transform="rotate(12.8691 55.6812 0)" fill="white"/>
<path d="M101.052 173H83.5783V125.727H101.029C105.845 125.727 109.992 126.674 113.47 128.566C116.963 130.444 119.656 133.152 121.549 136.691C123.442 140.215 124.388 144.432 124.388 149.341C124.388 154.265 123.442 158.497 121.549 162.036C119.671 165.575 116.986 168.291 113.493 170.184C110 172.061 105.853 173 101.052 173ZM95.004 163.259H100.613C103.26 163.259 105.499 162.813 107.33 161.92C109.177 161.013 110.569 159.543 111.508 157.512C112.462 155.465 112.939 152.741 112.939 149.341C112.939 145.94 112.462 143.231 111.508 141.216C110.554 139.184 109.146 137.722 107.284 136.83C105.437 135.922 103.16 135.468 100.451 135.468H95.004V163.259ZM156.611 139.9C156.457 138.207 155.772 136.891 154.557 135.953C153.356 134.999 151.641 134.522 149.409 134.522C147.932 134.522 146.701 134.714 145.716 135.099C144.731 135.483 143.993 136.014 143.5 136.691C143.008 137.353 142.754 138.115 142.738 138.977C142.708 139.684 142.846 140.308 143.154 140.846C143.477 141.385 143.939 141.862 144.539 142.277C145.154 142.677 145.893 143.031 146.755 143.339C147.616 143.647 148.586 143.916 149.663 144.147L153.726 145.07C156.065 145.578 158.127 146.255 159.912 147.102C161.712 147.948 163.22 148.956 164.436 150.125C165.667 151.295 166.598 152.641 167.229 154.165C167.86 155.688 168.183 157.396 168.198 159.289C168.183 162.274 167.429 164.837 165.936 166.975C164.444 169.114 162.297 170.753 159.496 171.892C156.711 173.031 153.349 173.6 149.409 173.6C145.454 173.6 142.007 173.008 139.068 171.823C136.129 170.638 133.844 168.837 132.213 166.422C130.582 164.006 129.743 160.951 129.697 157.258H140.638C140.73 158.781 141.138 160.051 141.861 161.066C142.585 162.082 143.577 162.851 144.839 163.375C146.116 163.898 147.593 164.159 149.271 164.159C150.81 164.159 152.118 163.952 153.195 163.536C154.287 163.121 155.126 162.544 155.711 161.805C156.295 161.066 156.596 160.22 156.611 159.266C156.596 158.373 156.319 157.612 155.78 156.981C155.241 156.335 154.41 155.781 153.287 155.319C152.179 154.842 150.763 154.403 149.04 154.003L144.1 152.849C140.007 151.91 136.783 150.395 134.429 148.302C132.074 146.194 130.905 143.347 130.92 139.761C130.905 136.838 131.69 134.275 133.275 132.075C134.86 129.874 137.052 128.159 139.853 126.928C142.654 125.696 145.847 125.081 149.432 125.081C153.095 125.081 156.272 125.704 158.965 126.951C161.674 128.182 163.774 129.913 165.267 132.144C166.759 134.375 167.521 136.961 167.552 139.9H156.611ZM182.734 173H170.455L186.405 125.727H201.616L217.566 173H205.286L194.183 137.638H193.814L182.734 173ZM181.096 154.396H206.763V163.075H181.096V154.396Z" fill="black"/>
</svg>
